<svg xmlns="http://www.w3.org/2000/svg" xmlns:svg="http://www.w3.org/2000/svg" id="svg2" width="802" height="802" version="1.1" xml:space="preserve"><metadata id="metadata8"/><defs id="defs6"><clipPath id="clipPath18"><path id="path20" d="m 0,0 1194.97,0 0,1195 L 0,1195 0,0 z"/></clipPath></defs><path style="fill:#fff;fill-opacity:1;fill-rule:nonzero;stroke:none" id="path3005" d="m -483.36444,23.246195 a 139.63861,139.63861 0 1 1 -279.27722,0 139.63861,139.63861 0 1 1 279.27722,0 z" transform="matrix(2.8645372,0,0,2.8646554,2185.6154,334.39116)"/><path id="path22" d="m 522.93243,400.98193 c 0,-67.34228 -54.58279,-121.93043 -121.92239,-121.93043 -67.34228,0 -121.93042,54.58815 -121.93042,121.93043 0,67.33959 54.58814,121.93042 121.93042,121.93042 67.3396,0 121.92239,-54.59083 121.92239,-121.93042" style="fill:#ed1c24;fill-opacity:1;fill-rule:nonzero;stroke:none"/><path id="path24" d="m 401.01807,0.96653089 c -38.11041,0 -74.92338,5.44281441 -109.84108,15.39787611 l 0,216.221663 c 31.58037,-20.63851 69.28843,-32.68099 109.83305,-32.68099 111.04346,0 201.07216,90.02536 201.07216,201.07685 0,111.05149 -90.0287,201.07751 -201.07216,201.07751 -111.05149,0 -201.07952,-90.02602 -201.07952,-201.07751 0,-3.57231 0.10176,-7.12052 0.28184,-10.64864 l -0.28184,0.22227 0,-335.314864 C 80.993974,124.56461 1,253.39195 1,400.98193 1,621.90262 180.09738,801 401.01807,801 621.93609,801 801,621.90262 801,400.98193 801,180.06391 621.93609,0.96653089 401.01807,0.96653089" style="fill:#ed1c24;fill-opacity:1;fill-rule:nonzero;stroke:none"/></svg>